<svg width="30" height="28" viewBox="0 0 30 28" fill="none" xmlns="http://www.w3.org/2000/svg">
<path d="M29.5999 23.3685L17.5559 1.54386C17.0224 0.577148 16.0669 0 14.9999 0C13.933 0 12.9775 0.577148 12.4441 1.54386L0.400122 23.3685C-0.133374 24.3352 -0.133374 25.4894 0.400122 26.4561C0.933619 27.4229 1.88911 28 2.95604 28H27.044C28.1109 28 29.0664 27.4229 29.5999 26.4561C30.1334 25.4895 30.1334 24.3352 29.5999 23.3685ZM28.0778 25.5367C27.862 25.9277 27.4756 26.1611 27.044 26.1611H2.95604C2.5245 26.1611 2.13807 25.9277 1.92227 25.5367C1.70653 25.1457 1.70653 24.6788 1.92227 24.2879L13.9662 2.46326C14.182 2.07228 14.5685 1.83884 15 1.83884C15.4315 1.83884 15.818 2.07228 16.0338 2.46326L28.0778 24.2879C28.2935 24.6788 28.2935 25.1457 28.0778 25.5367Z" fill="#66A3D2"/>
<path d="M3.93286 24.3223H26.0673L15.0001 4.26758L3.93286 24.3223ZM6.97716 22.4835L15.0001 7.94527L23.023 22.4835H6.97716Z" fill="#66A3D2"/>
<path d="M14.1212 12.5846H15.8789V17.0452H14.1212V12.5846Z" fill="#66A3D2"/>
<path d="M14.1212 18.8091H15.8789V20.6479H14.1212V18.8091Z" fill="#66A3D2"/>
</svg>
