<svg width="30" height="30" viewBox="0 0 30 30" fill="none" xmlns="http://www.w3.org/2000/svg">
<path d="M12 29.025V20.475L14.1 14.475C14.225 14.2 14.4063 13.9688 14.6438 13.7813C14.8813 13.5938 15.175 13.5 15.525 13.5H26.475C26.825 13.5 27.125 13.5938 27.375 13.7813C27.625 13.9688 27.8 14.2 27.9 14.475L30 20.475V29.025C30 29.3 29.9063 29.5313 29.7188 29.7188C29.5313 29.9063 29.3 30 29.025 30H27.975C27.7 30 27.4688 29.9063 27.2813 29.7188C27.0938 29.5313 27 29.3 27 29.025V27.75H15V29.025C15 29.3 14.9063 29.5313 14.7188 29.7188C14.5313 29.9063 14.3 30 14.025 30H12.975C12.7 30 12.4688 29.9063 12.2813 29.7188C12.0938 29.5313 12 29.3 12 29.025ZM15 18.75H27L25.95 15.75H16.05L15 18.75ZM16.5 24.75C16.925 24.75 17.2812 24.6063 17.5688 24.3188C17.8563 24.0313 18 23.675 18 23.25C18 22.825 17.8563 22.4688 17.5688 22.1813C17.2812 21.8938 16.925 21.75 16.5 21.75C16.075 21.75 15.7188 21.8938 15.4313 22.1813C15.1438 22.4688 15 22.825 15 23.25C15 23.675 15.1438 24.0313 15.4313 24.3188C15.7188 24.6063 16.075 24.75 16.5 24.75ZM25.5 24.75C25.925 24.75 26.2813 24.6063 26.5688 24.3188C26.8563 24.0313 27 23.675 27 23.25C27 22.825 26.8563 22.4688 26.5688 22.1813C26.2813 21.8938 25.925 21.75 25.5 21.75C25.075 21.75 24.7188 21.8938 24.4313 22.1813C24.1438 22.4688 24 22.825 24 23.25C24 23.675 24.1438 24.0313 24.4313 24.3188C24.7188 24.6063 25.075 24.75 25.5 24.75ZM6 18V15H9V18H6ZM13.5 9V6H16.5V9H13.5ZM6 24V21H9V24H6ZM6 30V27H9V30H6ZM0 30V9H7.5V0H22.5V10.5H19.5V3H10.5V12H3V30H0ZM14.25 25.5H27.75V21H14.25V25.5Z" fill="#66A3D2"/>
</svg>
