<svg width="30" height="28" viewBox="0 0 30 28" fill="none" xmlns="http://www.w3.org/2000/svg">
<path d="M29.6916 24.3652L16.9929 1.21133C16.5819 0.4617 15.8222 0 15 0C14.1779 0 13.4182 0.461604 13.0071 1.21133L0.308477 24.3652C-0.102795 25.1148 -0.102795 26.0387 0.308295 26.7884C0.719385 27.5381 1.47912 28 2.30139 28H27.6987C28.5209 28 29.2807 27.5382 29.6918 26.7884C30.1028 26.0387 30.1028 25.1148 29.6916 24.3652ZM2.30139 25.5769L15 2.42304L27.6987 25.5769H2.30139Z" fill="#66A3D2"/>
<path d="M14.2713 14.1448L13.6949 13.4666L13.1184 14.1448V15.6748H11.661V14.1448L11.0844 13.4666L10.508 14.1448V15.6748H9.99341V16.5541H10.508V21.0617H9.99341V21.9411H10.508V23.16H11.661V21.9411H13.1184V23.16H14.2713V21.9411H15.7287V23.16H16.8817V21.9411H18.3391V23.16H19.4921V21.9411H20.0067V21.0617H19.4921V16.5541H20.0067V15.6748H19.4921V14.1448L18.9157 13.4666L18.3391 14.1448V15.6748H16.8817V14.1448L16.3052 13.4666L15.7287 14.1448V15.6748H14.2713V14.1448ZM13.1184 21.0617H11.661V16.5541H13.1184V21.0617ZM16.8817 16.5541H18.3391V21.0617H16.8817V16.5541ZM15.7287 16.5541V21.0617H14.2713V16.5541H15.7287Z" fill="#66A3D2"/>
</svg>
