<svg width="32" height="28" viewBox="0 0 32 28" fill="none" xmlns="http://www.w3.org/2000/svg">
<path d="M0 22.75V15.75H11.9273L2.90909 7.175V12.25H0V1.75H1.45455L17.4545 12.3375V0H24.7273L32 10.5V22.75H28.3636C28.3636 24.2083 27.9394 25.4479 27.0909 26.4688C26.2424 27.4896 25.2121 28 24 28C22.7879 28 21.7576 27.4896 20.9091 26.4688C20.0606 25.4479 19.6364 24.2083 19.6364 22.75H11.6364C11.6364 24.2083 11.2121 25.4479 10.3636 26.4688C9.51515 27.4896 8.48485 28 7.27273 28C6.06061 28 5.0303 27.4896 4.18182 26.4688C3.33333 25.4479 2.90909 24.2083 2.90909 22.75H0ZM7.27273 25.375C7.90303 25.375 8.42424 25.1271 8.83636 24.6313C9.24848 24.1354 9.45455 23.5083 9.45455 22.75C9.45455 21.9917 9.24848 21.3646 8.83636 20.8687C8.42424 20.3729 7.90303 20.125 7.27273 20.125C6.64242 20.125 6.12121 20.3729 5.70909 20.8687C5.29697 21.3646 5.09091 21.9917 5.09091 22.75C5.09091 23.5083 5.29697 24.1354 5.70909 24.6313C6.12121 25.1271 6.64242 25.375 7.27273 25.375ZM24 25.375C24.6303 25.375 25.1515 25.1271 25.5636 24.6313C25.9758 24.1354 26.1818 23.5083 26.1818 22.75C26.1818 21.9917 25.9758 21.3646 25.5636 20.8687C25.1515 20.3729 24.6303 20.125 24 20.125C23.3697 20.125 22.8485 20.3729 22.4364 20.8687C22.0242 21.3646 21.8182 21.9917 21.8182 22.75C21.8182 23.5083 22.0242 24.1354 22.4364 24.6313C22.8485 25.1271 23.3697 25.375 24 25.375ZM20.3636 10.5H28.2182L23.3455 3.5H20.3636V10.5Z" fill="#66A3D2"/>
</svg>
