<svg width="34" height="24" viewBox="0 0 34 24" fill="none" xmlns="http://www.w3.org/2000/svg">
<path d="M4.9725 23.5C3.4425 22.0371 2.23125 20.3168 1.33875 18.3392C0.44625 16.3616 0 14.2485 0 12C0 9.75147 0.44625 7.6384 1.33875 5.66078C2.23125 3.68316 3.4425 1.9629 4.9725 0.5L6.8 2.24735C5.46833 3.52061 4.42708 4.98351 3.67625 6.63604C2.92542 8.28858 2.55 10.0766 2.55 12C2.55 13.9234 2.92542 15.7114 3.67625 17.364C4.42708 19.0165 5.46833 20.4794 6.8 21.7527L4.9725 23.5ZM8.585 20.0459C7.50833 19.0165 6.65833 17.811 6.035 16.4293C5.41167 15.0477 5.1 13.5713 5.1 12C5.1 10.4287 5.41167 8.9523 6.035 7.57067C6.65833 6.18905 7.50833 4.98351 8.585 3.95406L10.37 5.66078C9.52 6.4735 8.85417 7.42167 8.3725 8.5053C7.89083 9.58893 7.65 10.7538 7.65 12C7.65 13.2462 7.89083 14.4111 8.3725 15.4947C8.85417 16.5783 9.52 17.5265 10.37 18.3392L8.585 20.0459ZM15.3 19.3145C15.3 18.6914 15.0804 18.0751 14.6413 17.4655C14.2021 16.856 13.7133 16.2194 13.175 15.5557C12.6367 14.8919 12.1479 14.2011 11.7087 13.4832C11.2696 12.7653 11.05 12 11.05 11.1873C11.05 9.61602 11.6308 8.27503 12.7925 7.16431C13.9542 6.05359 15.3567 5.49823 17 5.49823C18.6433 5.49823 20.0458 6.05359 21.2075 7.16431C22.3692 8.27503 22.95 9.61602 22.95 11.1873C22.95 12 22.7304 12.7653 22.2913 13.4832C21.8521 14.2011 21.3633 14.8919 20.825 15.5557C20.2867 16.2194 19.7979 16.856 19.3587 17.4655C18.9196 18.0751 18.7 18.6914 18.7 19.3145H15.3ZM15.3 23.3781V20.9399H18.7V23.3781H15.3ZM25.415 20.0459L23.63 18.3392C24.48 17.5265 25.1458 16.5783 25.6275 15.4947C26.1092 14.4111 26.35 13.2462 26.35 12C26.35 10.7538 26.1092 9.58893 25.6275 8.5053C25.1458 7.42167 24.48 6.4735 23.63 5.66078L25.415 3.95406C26.4917 4.98351 27.3417 6.18905 27.965 7.57067C28.5883 8.9523 28.9 10.4287 28.9 12C28.9 13.5713 28.5883 15.0477 27.965 16.4293C27.3417 17.811 26.4917 19.0165 25.415 20.0459ZM29.0275 23.5L27.2 21.7527C28.5317 20.4794 29.5729 19.0165 30.3237 17.364C31.0746 15.7114 31.45 13.9234 31.45 12C31.45 10.0766 31.0746 8.28858 30.3237 6.63604C29.5729 4.98351 28.5317 3.52061 27.2 2.24735L29.0275 0.5C30.5575 1.9629 31.7688 3.68316 32.6613 5.66078C33.5537 7.6384 34 9.75147 34 12C34 14.2485 33.5537 16.3616 32.6613 18.3392C31.7688 20.3168 30.5575 22.0371 29.0275 23.5Z" fill="#66A3D2"/>
</svg>
