<svg width="32" height="28" viewBox="0 0 32 28" fill="none" xmlns="http://www.w3.org/2000/svg">
<path d="M0 12.7167V9.48889C2.64 8.86667 5.28667 8.42593 7.94 8.16667C10.5933 7.90741 13.28 7.77778 16 7.77778C18.72 7.77778 21.4067 7.90741 24.06 8.16667C26.7133 8.42593 29.36 8.86667 32 9.48889V12.7167C31.4667 12.587 30.9333 12.4704 30.4 12.3667L28.8 12.0556V17.1111H25.6V11.5111C24 11.3037 22.4 11.1481 20.8 11.0444C19.2 10.9407 17.6 10.8889 16 10.8889C14.4 10.8889 12.8 10.9343 11.2 11.025C9.6 11.1157 8 11.2648 6.4 11.4722V17.1111H3.2V12.0167C2.66667 12.1204 2.13333 12.2306 1.6 12.3472C1.06667 12.4639 0.533333 12.587 0 12.7167ZM6.4 28L8.72 14.35C9.2 14.2981 9.74667 14.2528 10.36 14.2139C10.9733 14.175 11.52 14.1426 12 14.1167L9.6 28H6.4ZM11.2 0H14.4L13.6 4.62778C13.12 4.6537 12.58 4.68611 11.98 4.725C11.38 4.76389 10.84 4.80926 10.36 4.86111L11.2 0ZM14.4 28H17.6V21.7778H14.4V28ZM14.4 18.6667H17.6V14.0389H14.4V18.6667ZM17.6 0H20.8L21.64 4.86111C21.16 4.83519 20.62 4.7963 20.02 4.74444C19.42 4.69259 18.88 4.6537 18.4 4.62778L17.6 0ZM22.4 28L20 14.1167C20.48 14.1426 21.0267 14.1815 21.64 14.2333C22.2533 14.2852 22.8 14.337 23.28 14.3889L25.6 28H22.4Z" fill="#66A3D2"/>
</svg>
