<svg width="28" height="32" viewBox="0 0 28 32" fill="none" xmlns="http://www.w3.org/2000/svg">
<path d="M27.5831 4.80446L22.4843 2.89002C22.1452 2.76264 21.7613 2.91958 21.6268 3.2404C21.4923 3.56127 21.658 3.92452 21.9971 4.05183L25.5487 5.38534L14.6605 9.47334L3.77227 5.3854L14.6605 1.29733L17.0854 2.20771C17.4246 2.33514 17.8084 2.17808 17.9429 1.85727C18.0774 1.53646 17.9116 1.17314 17.5726 1.04589L14.9041 0.0440157C14.7476 -0.0146719 14.5734 -0.0146719 14.4169 0.0440157L1.73783 4.80446C1.48619 4.89896 1.32094 5.12915 1.32094 5.3854V8.98959C0.552218 9.24759 0 9.94228 0 10.7571V13.5071C0 13.8522 0.295692 14.1321 0.660469 14.1321H3.30235C3.66712 14.1321 3.96282 13.8522 3.96282 13.5071V10.7571C3.96282 9.94234 3.4106 9.24759 2.64188 8.98959V6.30571L7.39726 8.09115V11.4677C4.38558 13.621 2.59756 17.0039 2.59756 20.583C2.59756 22.2534 2.97026 23.8632 3.70536 25.3682C3.81692 25.5966 4.05574 25.7311 4.30527 25.7311C4.398 25.7311 4.49225 25.7125 4.58194 25.6732C4.91303 25.5284 5.05741 25.157 4.90431 24.8437C4.25012 23.5044 3.91843 22.071 3.91843 20.583C3.91843 17.69 5.23092 14.941 7.47922 13.0238C7.55167 13.1484 7.66818 13.249 7.81408 13.3038L9.06725 13.7743C8.15039 14.4502 7.37255 15.2889 6.7848 16.2422C6.26528 17.0848 5.90393 18.0054 5.71114 18.9605C5.70348 18.988 5.69846 19.0162 5.69483 19.0447C5.59827 19.5503 5.54788 20.065 5.54788 20.583C5.54788 25.3389 9.63664 29.2081 14.6624 29.2081C19.6881 29.2081 23.7768 25.3389 23.7768 20.583C23.7768 20.071 23.7271 19.5649 23.633 19.0694C23.6294 19.0269 23.6211 18.9853 23.6087 18.945C23.1883 16.9048 21.9961 15.0583 20.2553 13.7735L21.5106 13.3022C21.6561 13.2476 21.7724 13.1474 21.8449 13.0233C24.0935 14.9405 25.4063 17.6897 25.4063 20.583C25.4063 26.1891 20.5866 30.75 14.6624 30.75C12.2217 30.75 9.92137 29.9953 8.01037 28.5675C7.72406 28.3536 7.30875 28.3998 7.08274 28.6707C6.85673 28.9416 6.90554 29.3347 7.19185 29.5486C9.33838 31.1523 11.9216 32 14.6624 32C21.3151 32 26.7273 26.8783 26.7273 20.583C26.7273 17.004 24.9393 13.6211 21.9276 11.4677V8.08972L27.5831 5.96634C27.8347 5.87184 28 5.64165 28 5.3854C28 5.12915 27.8348 4.8989 27.5831 4.80446ZM2.64188 12.8821H1.32094V10.7571C1.32094 10.4125 1.61722 10.1321 1.98141 10.1321C2.34559 10.1321 2.64188 10.4125 2.64188 10.7571V12.8821ZM7.15467 22.5635H11.0498C11.8914 22.5635 12.576 23.2114 12.576 24.0077V27.6892C9.95506 26.9992 7.886 25.0428 7.15467 22.5635ZM13.8969 27.9224V24.0077C13.8969 22.522 12.6197 21.3135 11.0498 21.3135H6.90712C6.88202 21.0731 6.86895 20.8295 6.86895 20.583C6.86895 20.2617 6.8916 19.9429 6.93552 19.6284L12.0053 18.4709C13.7436 18.0741 15.5812 18.0739 17.3197 18.4709L22.3896 19.6284C22.4333 19.9429 22.456 20.2615 22.456 20.583C22.456 20.8295 22.4429 21.0732 22.4178 21.3135H18.2752C16.7052 21.3135 15.428 22.5221 15.428 24.0077V27.9224C15.1761 27.9457 14.9208 27.958 14.6625 27.958C14.4043 27.958 14.1488 27.9457 13.8969 27.9224ZM16.7488 27.6892V24.0077C16.7488 23.2114 17.4335 22.5635 18.2751 22.5635H22.1702C21.4388 25.0428 19.3698 26.9992 16.7488 27.6892ZM22.0579 18.2669L17.6294 17.2557C15.6881 16.8126 13.6363 16.8125 11.6953 17.2558L7.26767 18.2667C7.83501 16.6548 8.98185 15.2465 10.5365 14.3259L14.4169 15.7827C14.4951 15.8121 14.5777 15.8268 14.6604 15.8268C14.7431 15.8268 14.8258 15.8121 14.904 15.7827L18.7875 14.3246C20.3443 15.246 21.4909 16.6538 22.0579 18.2669ZM20.6066 12.2968L14.6604 14.5294L8.71819 12.2984V8.58715L14.4169 10.7267C14.4952 10.7561 14.5778 10.7708 14.6605 10.7708C14.7432 10.7708 14.8258 10.7561 14.9041 10.7267L20.6066 8.58565V12.2968Z" fill="#66A3D2"/>
</svg>
