<svg width="30" height="28" viewBox="0 0 30 28" fill="none" xmlns="http://www.w3.org/2000/svg">
<path d="M23.75 19.0909C22.25 19.0909 20.9271 18.6136 19.7812 17.6591C18.6354 16.7045 17.9167 15.4848 17.625 14H13.9062L12.4062 11.4545H17.625C17.7292 10.9879 17.8698 10.5424 18.0469 10.1182C18.224 9.69394 18.4583 9.29091 18.75 8.90909H10.875L9.375 6.36364H20.0625L18.6875 2.54545H13.75V0H18.6875C19.2292 0 19.7083 0.153788 20.125 0.461364C20.5417 0.768939 20.8438 1.17727 21.0312 1.68636L22.7188 6.36364H23.75C25.4792 6.36364 26.9531 6.98409 28.1719 8.225C29.3906 9.46591 30 10.9667 30 12.7273C30 14.4879 29.3906 15.9886 28.1719 17.2295C26.9531 18.4705 25.4792 19.0909 23.75 19.0909ZM23.75 16.5455C24.7917 16.5455 25.6771 16.1742 26.4062 15.4318C27.1354 14.6894 27.5 13.7879 27.5 12.7273C27.5 11.6667 27.1354 10.7652 26.4062 10.0227C25.6771 9.2803 24.7917 8.90909 23.75 8.90909H23.6562L24.875 12.3136L22.5 13.1727L21.3125 9.83182C20.8958 10.1924 20.5729 10.6273 20.3438 11.1364C20.1146 11.6455 20 12.1758 20 12.7273C20 13.7879 20.3646 14.6894 21.0938 15.4318C21.8229 16.1742 22.7083 16.5455 23.75 16.5455ZM8.75 28C7.70833 28 6.82292 27.6288 6.09375 26.8864C5.36458 26.1439 5 25.2424 5 24.1818H0V21.6364H5.96875C6.28125 21.3182 6.67708 21.0265 7.15625 20.7614C7.63542 20.4962 8.16667 20.3636 8.75 20.3636C9.27083 20.3636 9.77083 20.4697 10.25 20.6818C10.7292 20.8939 11.1562 21.2121 11.5312 21.6364H15V19.0909H0V16.5455H2.5V12.7273H0V10.1818H8.75L12.5 16.5455H15C15.6875 16.5455 16.276 16.7947 16.7656 17.2932C17.2552 17.7917 17.5 18.3909 17.5 19.0909V21.6364C17.5 22.3364 17.2552 22.9356 16.7656 23.4341C16.276 23.9326 15.6875 24.1818 15 24.1818H12.5C12.5 25.2424 12.1354 26.1439 11.4062 26.8864C10.6771 27.6288 9.79167 28 8.75 28ZM5 16.5455H9.59375L7.34375 12.7273H5V16.5455ZM8.75 25.4545C9.10417 25.4545 9.40104 25.3326 9.64062 25.0886C9.88021 24.8447 10 24.5424 10 24.1818C10 23.8212 9.88021 23.5189 9.64062 23.275C9.40104 23.0311 9.10417 22.9091 8.75 22.9091C8.39583 22.9091 8.09896 23.0311 7.85938 23.275C7.61979 23.5189 7.5 23.8212 7.5 24.1818C7.5 24.5424 7.61979 24.8447 7.85938 25.0886C8.09896 25.3326 8.39583 25.4545 8.75 25.4545Z" fill="#66A3D2"/>
</svg>
